<svg height="256" viewBox="0 0 512 512" width="256" xmlns="http://www.w3.org/2000/svg"><path d="m380.63 32.196c-77.991 1.502-116.16 56.697-124.63 106.879-8.47-50.182-46.638-105.378-124.63-106.879-71.908-1.382-131.37 53.932-131.37 154.88 0 129.588 146.582 189.45 246.817 286.25 3.489 3.371 2.668 3.284 2.668 3.284 1.647 2.031 4.014 3.208 6.504 3.208v.011h.011.011v-.011c2.489 0 4.856-1.177 6.503-3.208 0 0-.821.086 2.669-3.284 100.235-96.8 246.817-156.662 246.817-286.25 0-100.948-59.462-156.262-131.37-154.88z" fill="#4b4b4b"/></svg>